<svg width="222" height="95" viewBox="0 0 222 95" fill="none" xmlns="http://www.w3.org/2000/svg">
<path d="M41.5759 51.5425L44.6099 60.4522C46.2514 65.2701 47.717 69.1233 47.908 69.1233C47.9112 69.1233 47.914 69.1219 47.9164 69.1198C48.1264 68.9343 54.0648 51.6891 54.0648 51.6891H65.5742L51.6887 92.1484H43.6892C43.6892 92.1484 35.1508 67.488 35.1857 67.3942L26.2729 91.8376H18.3538L4.64331 51.5425L16.0967 51.5498C16.0967 51.5498 22.3707 69.3339 22.4544 69.3339C22.4547 69.3339 22.4547 69.3336 22.4551 69.3332L28.7154 51.5421H41.5759V51.5425ZM0.73312 48.7405L1.99324 52.4443L15.7037 92.7391L16.3494 94.6371H18.3542H26.2732H28.2322L28.9033 92.7965L35.092 75.8246C35.6253 77.3762 36.2016 79.0485 36.778 80.7195C38.9087 86.8976 41.044 93.0642 41.044 93.0642L41.6963 94.9479H43.6895H51.6891H53.6879L54.3367 93.0572L68.2222 52.5982L69.4949 48.8896H65.5742H54.0648H52.0681L51.4179 50.7779C50.3772 53.7996 48.996 57.7874 47.8149 61.1626C47.6368 60.6506 47.4514 60.1124 47.2596 59.549L44.226 50.6396L43.58 48.7426H41.5759H28.7158H26.733L26.0748 50.613L22.4169 61.0083C21.2086 57.6118 19.8078 53.6536 18.737 50.6183L18.0784 48.7517L16.0988 48.7503L4.64541 48.743L0.73312 48.7405Z" fill="#FFE81F"/>
<path d="M218.833 51.3853L218.806 61.9902C218.806 61.9902 207.383 61.952 201.576 61.952C199.644 61.952 198.333 61.9566 198.271 61.9678C197.27 62.1501 196.633 64.278 196.917 65.212C197.056 65.6844 198.103 67.2276 199.237 68.6449C200.367 70.0625 202.225 72.3826 203.359 73.7991C206.27 77.4318 206.67 78.1488 206.939 80.2348C207.376 83.6225 205.774 87.2895 202.799 89.7076C199.819 92.1326 199.949 92.1498 177.82 92.1498C177.499 92.1498 177.178 92.1498 176.848 92.1498C163.389 92.1463 156.272 92.0346 155.236 91.8037C153.395 91.3873 150.462 88.9937 142.711 81.5575C139.923 78.8854 137.354 76.5458 137.222 76.5451C137.219 76.5451 137.217 76.5472 137.217 76.5507L137.126 92.1505L124.563 92.0948L124.486 51.8592H140.328H152.502C160.946 52.1639 166.661 60.5761 165.523 65.9406C165.264 67.158 164.607 68.9224 164.06 69.8599C162.937 71.7845 160.078 74.2551 157.758 75.3157C156.901 75.7035 156.201 76.1549 156.201 76.3159C156.201 76.9142 159.022 79.6924 160.078 80.1337C160.98 80.5112 163.609 80.5952 175.199 80.5952C176.557 80.5952 177.791 80.5959 178.911 80.5959C190.561 80.5959 189.975 80.5119 190.875 78.5869C191.505 77.2467 191.026 76.4453 186.592 71.4517C180.975 65.8629 181.564 63.1859 181.525 61.2087C181.445 58.8397 183.311 51.3864 193.007 51.3864L218.833 51.3853ZM143.572 69.9739C148.95 69.9739 150.042 69.8903 151.187 69.3931C155.05 67.7134 155.257 62.7516 151.551 60.5498C150.739 60.0666 149.696 59.9868 143.866 59.9549L137.12 59.9196C137.175 59.9721 137.098 69.5673 137.098 69.5673C137.098 69.5673 138.788 69.9739 143.572 69.9739ZM221.639 48.5858H218.832H193.007C187.396 48.5858 184.078 50.8002 182.283 52.6581C179.362 55.6791 178.674 59.4832 178.726 61.2766C178.729 61.4261 178.728 61.5793 178.726 61.7392C178.7 64.6539 179.13 67.9534 184.555 73.3732C185.628 74.5812 187.422 76.6063 188.101 77.6127C186.618 77.795 182.859 77.795 178.911 77.795H177.234L175.198 77.7943C168.233 77.7943 162.36 77.7744 161.156 77.5368C160.988 77.4269 160.752 77.2379 160.492 77.0126C162.898 75.5306 165.332 73.2336 166.477 71.2694C167.173 70.0751 167.939 68.035 168.261 66.5215C168.975 63.1533 167.798 59.0902 165.111 55.6497C161.977 51.6355 157.418 49.2339 152.603 49.0604L152.552 49.0583H152.501H140.327H124.485H121.68L121.685 51.8637L121.763 92.099L121.768 94.8807L124.55 94.8929L137.112 94.9486L139.908 94.9608L139.924 92.1655L139.978 82.8201C140.235 83.0637 140.5 83.3167 140.772 83.5777C149.25 91.7102 152.096 93.9635 154.617 94.5335C155.309 94.6879 156.455 94.9437 176.846 94.9493H177.818C188.857 94.9493 194.398 94.9493 197.694 94.6308C201.47 94.2658 202.684 93.4095 204.504 91.9276L204.565 91.8782C208.304 88.8383 210.277 84.2391 209.714 79.8754C209.347 77.0374 208.596 75.8585 205.542 72.048L204.634 70.9142C203.571 69.5848 202.285 67.9793 201.424 66.8987C200.729 66.0295 200.183 65.2579 199.853 64.7526C200.286 64.7515 200.848 64.7508 201.574 64.7508C207.312 64.7508 218.682 64.7886 218.796 64.7893L221.598 64.7984L221.605 61.9961L221.631 51.3909L221.639 48.5858ZM139.915 67.0723C139.92 66.3651 139.924 65.5721 139.929 64.7777C139.932 64.0779 139.935 63.3766 139.936 62.7341L143.851 62.7544C146.101 62.7667 149.486 62.7852 150.146 62.9724C150.988 63.4837 151.458 64.2742 151.407 65.093C151.379 65.5354 151.169 66.3486 150.07 66.8256C149.458 67.0915 148.481 67.1745 143.572 67.1745C142.015 67.1745 140.813 67.1293 139.915 67.0723Z" fill="#FFE81F"/>
<path d="M99.032 51.2205L113.131 91.7851L101.642 91.8376L99.7353 85.7452L79.1941 85.5804L77.3814 91.6802L66.0085 91.5608L79.9289 51.238L99.032 51.2205ZM89.7933 57.168C89.7642 57.2846 87.9932 62.1438 86.2162 67.0026C84.4246 71.9018 82.627 76.8009 82.6021 76.839C82.6021 76.8394 82.6018 76.8394 82.6021 76.8394C82.6021 76.8394 82.6021 76.8394 82.6021 76.839C82.6497 76.825 89.0115 76.811 93.089 76.811C94.9972 76.811 96.4046 76.8142 96.4309 76.8212C96.4312 76.8226 96.4312 76.8229 96.4312 76.8229C96.4312 76.8229 96.4312 76.8226 96.4312 76.8219C96.4312 76.8219 96.4312 76.8219 96.4309 76.8212C96.3595 76.636 89.8139 57.4046 89.7933 57.168C89.7936 57.1666 89.7936 57.1659 89.7936 57.1659C89.7933 57.1659 89.7933 57.1666 89.7933 57.168ZM101.022 48.4193L99.0299 48.421L79.9268 48.4389L77.9336 48.4406L77.2831 50.3254L63.3626 90.6482L62.0948 94.3204L65.9798 94.3607L77.3527 94.48L79.4639 94.502L80.0654 92.4787L81.2783 88.3978L97.6742 88.529L98.9718 92.675L99.5894 94.648L101.656 94.6389L113.145 94.5864L117.062 94.5682L115.776 90.868L101.677 50.3033L101.022 48.4193ZM86.6316 74.0143C87.1618 72.5694 87.876 70.6164 88.8457 67.9643C89.1498 67.1328 89.428 66.3717 89.6831 65.6739C89.9151 66.3584 90.1677 67.1031 90.4421 67.9128C90.6681 68.5798 91.6616 71.5067 92.5137 74.0115C89.9802 74.0115 88.073 74.0119 86.6316 74.0143Z" fill="#FFE81F"/>
<path d="M103.784 2.80369V12.8119H83.7398V43.4208H71.7894V12.7874L48.3927 12.8539C45.5722 12.8539 45.1943 15.1005 45.1943 15.9613C45.1943 17.0181 45.8836 18.0749 49.67 22.869C52.1265 25.9835 54.3836 29.0909 54.681 29.7698C56.3047 33.5071 54.2051 39.33 50.3803 41.6956C47.6543 43.3798 48.1201 43.4211 27.8766 43.4211C26.8359 43.4211 25.7434 43.4211 24.59 43.4211H2.79949V32.1777H37.0582L38.0696 31.4743C38.7519 30.9984 39.1474 30.344 39.2978 29.4482C39.5078 28.1604 39.3993 27.9925 35.1686 23.2263C30.168 17.5923 29.6396 16.5635 29.8986 12.9662C30.1925 8.86144 33.8528 2.89852 40.2497 2.89852L103.784 2.80369ZM106.584 0L103.78 0.0041996L40.2451 0.0986812C36.5855 0.0986812 33.1866 1.67969 30.6772 4.55057C28.6426 6.87835 27.3073 9.94974 27.1057 12.766C26.7652 17.494 27.8535 19.2024 33.0742 25.0845C34.5895 26.7911 36.0301 28.4145 36.511 29.1039C36.5033 29.1315 36.4963 29.1493 36.4921 29.1595C36.4868 29.1637 36.4788 29.17 36.4676 29.1777L36.1799 29.3778H2.79949H0V32.1773V43.4208V46.2203H2.79949H24.59H26.3177H27.8766C37.8575 46.2203 42.7839 46.2108 45.6863 45.9981C49.0072 45.7549 50.0668 45.1852 51.6541 44.1994L51.8522 44.0766C56.8429 40.9898 59.415 33.639 57.2489 28.6535C56.5805 27.1285 52.3487 21.7436 51.8683 21.1347C50.5399 19.4526 48.3472 16.6766 48.0001 15.8731C48.0085 15.8056 48.0249 15.7356 48.0424 15.6869C48.1001 15.6722 48.2107 15.6527 48.3927 15.6527L68.9899 15.5942V43.4201V46.2196H71.7894H83.7398H86.5392V43.4201V15.6107H103.784H106.584V12.8112V2.80299V0V0Z" fill="#FFE81F"/>
<path d="M136.349 3.12877L150.41 43.7984L138.942 43.7354L137.081 37.643L116.631 37.552L114.804 43.4204H103.127L117.033 3.12877H136.349V3.12877ZM119.968 28.8914L133.896 28.8739C133.896 28.8739 133.896 28.8743 133.896 28.8743C133.944 28.8743 127.128 8.85758 127.083 8.84358C127.033 8.84183 119.811 28.8914 119.968 28.8914ZM138.343 0.329285H136.349H117.033H115.038L114.387 2.21544L100.48 42.5075L99.1989 46.2203H103.127H114.804H116.865L117.477 44.2526L118.689 40.3609L135.007 40.4334L136.266 44.5535L136.868 46.5233L138.929 46.5349L150.396 46.5979L154.349 46.6196L153.058 42.8836L138.997 2.21404L138.343 0.329285ZM123.858 26.087C124.721 23.628 125.924 20.2582 127.012 17.2295C128.043 20.2543 129.185 23.614 130.017 26.0793L123.858 26.087Z" fill="#FFE81F"/>
<path d="M175.839 3.12877C184.909 3.12877 191.204 3.25825 192.415 3.46821C195.215 3.95462 197.745 5.44885 199.641 7.74443C201.626 10.145 202.08 11.2928 202.339 14.5822C202.711 19.2258 200.502 23.2326 196.146 25.8326C194.875 26.592 193.57 27.3304 193.245 27.4773C192.744 27.7048 192.811 27.9218 193.707 28.9716C194.284 29.6469 195.285 30.6093 195.929 31.1097L197.104 32.023L218.828 32.3345L219.042 43.4204H205.723C195.421 43.4204 192.124 43.326 191.158 43.0005C189.713 42.5106 186.235 39.5641 179.166 32.8384L174.12 28.0372L174.173 43.4204H161.21V3.12877H175.839ZM173.929 21.245H180.812C187.511 21.245 187.72 21.224 188.675 20.5066C190.384 19.2258 190.988 17.9066 190.807 15.8805C190.621 13.7913 189.817 12.703 187.797 11.8282C186.66 11.3313 185.564 11.2508 180.196 11.2508H173.929V21.245V21.245ZM175.839 0.329285H161.211H158.412V3.12877V43.4204V46.2199H161.211H174.174H176.983L176.974 43.4106L176.943 34.5866L177.237 34.8662C185.98 43.1853 188.559 45.0749 190.261 45.6516C191.567 46.0922 193.754 46.2199 205.724 46.2199H219.043H221.896L221.841 43.3665L221.628 32.2806L221.577 29.5742L218.87 29.5353L198.083 29.2375L197.648 28.8991C197.509 28.791 197.341 28.6482 197.161 28.4866C197.318 28.3942 197.46 28.3091 197.584 28.2357C202.834 25.1027 205.585 20.0447 205.132 14.3596C204.83 10.5247 204.145 8.79704 201.8 5.96116C199.496 3.17251 196.334 1.30771 192.895 0.710364C190.985 0.378975 181.389 0.329285 175.839 0.329285ZM176.728 14.0503H180.196C185.105 14.0503 186.077 14.1318 186.676 14.3936C187.814 14.8863 187.929 15.1253 188.018 16.1282C188.108 17.1248 187.984 17.5259 186.996 18.267C186.963 18.2912 186.938 18.3101 186.918 18.3251C186.265 18.4458 183.843 18.4458 180.812 18.4458H176.729L176.728 14.0503Z" fill="#FFE81F"/>
</svg>
