<?xml version="1.0" standalone="no"?>
<!DOCTYPE svg PUBLIC "-//W3C//DTD SVG 20010904//EN"
 "http://www.w3.org/TR/2001/REC-SVG-20010904/DTD/svg10.dtd">
<svg version="1.0" xmlns="http://www.w3.org/2000/svg"
 width="600.000000pt" height="600.000000pt" viewBox="0 0 600.000000 600.000000"
 preserveAspectRatio="xMidYMid meet">
<metadata>
Created by potrace 1.14, written by Peter Selinger 2001-2017
</metadata>
<g transform="translate(0.000000,600.000000) scale(0.100000,-0.100000)"
fill="#000000" stroke="none">
<path d="M699 5996 c-2 -2 -22 -7 -44 -10 -38 -6 -92 -20 -125 -33 -8 -4 -17
-7 -20 -7 -10 -3 -115 -56 -135 -68 -123 -79 -237 -207 -295 -333 -35 -77 -38
-86 -57 -150 -17 -56 -18 -197 -20 -2370 -1 -2188 -1 -2314 16 -2390 10 -44
22 -89 26 -100 53 -144 153 -281 273 -374 68 -52 200 -115 288 -137 77 -19
134 -19 2399 -19 2236 0 2323 1 2390 19 39 10 75 22 80 26 6 5 12 8 15 8 15
-1 88 36 147 75 185 120 304 300 352 532 12 60 10 4641 -3 4695 -44 189 -158
367 -311 483 -61 47 -189 109 -275 133 -62 18 -163 19 -2381 21 -1273 2 -2317
1 -2320 -1z"/>
</g>
</svg>
